<svg width="" height="" viewBox="0 0 829 765" fill="none" xmlns="http://www.w3.org/2000/svg" preserveAspectRatio="none">
<path d="M590.549 729.45C589.652 729.841 588.755 730.223 587.858 730.606C577.505 732.136 567.247 734.311 557.205 737.459C546.3 740.83 535.49 745.667 524.999 751.827C524.119 752.05 523.23 752.274 522.35 752.489C533.574 745.659 545.204 740.352 556.937 736.734C567.946 733.275 579.196 730.996 590.549 729.45ZM633.789 705.464C621.09 705.44 607.968 705.44 595.251 705.934C570.396 706.97 551.019 710.07 534.308 715.688C527.233 717.951 520.521 721.155 514.025 724.262C512.282 725.099 510.548 725.928 508.797 726.741C499.591 730.949 489.877 734.853 479.11 738.67C456.429 746.703 432.695 753.102 409.755 759.294C403.017 761.103 396.158 762.96 389.291 764.865C390.085 764.904 390.878 764.96 391.681 765C397.823 763.311 403.957 761.653 409.988 760.027C432.945 753.835 456.696 747.436 479.412 739.388C490.205 735.563 499.936 731.65 509.176 727.434C510.928 726.613 512.67 725.785 514.413 724.948C520.875 721.856 527.561 718.66 534.584 716.421C551.226 710.819 570.517 707.735 595.294 706.707C607.985 706.213 621.099 706.213 633.789 706.229C634.635 706.229 635.489 706.237 636.335 706.237C636.775 705.974 637.223 705.727 637.672 705.464C636.378 705.464 635.084 705.464 633.789 705.464ZM473.597 711.417C483.105 708.572 492.577 705.201 501.731 701.941C507.761 699.79 513.999 697.574 520.176 695.534C547.309 687.573 576.202 687.653 604.18 687.757L606.484 687.772C626.318 687.932 646.541 688.091 666.625 686.681C667.031 686.394 667.436 686.107 667.841 685.82C647.369 687.326 626.732 687.167 606.493 686.999L604.18 686.991C576.176 686.888 547.18 686.808 519.909 694.801C513.714 696.849 507.468 699.072 501.429 701.224C492.284 704.475 482.828 707.846 473.33 710.683C459.569 714.971 445.498 719.154 431.893 723.195C405.916 730.901 379.059 738.878 353.125 747.994C344.748 750.903 336.311 753.971 327.83 757.174C328.313 757.27 328.788 757.374 329.271 757.469C337.363 754.417 345.421 751.493 353.419 748.719C379.335 739.611 406.183 731.642 432.152 723.928C445.757 719.88 459.828 715.704 473.597 711.417ZM472.174 686.011C477.971 684.673 483.838 683.142 489.506 681.668C499.177 679.15 509.176 676.544 519.184 674.783C536.585 671.986 554.082 671.787 570.517 671.771C575.106 671.787 579.705 671.827 584.294 671.866C602.714 672.018 621.763 672.177 640.484 670.822C661.354 669.372 681.179 665.977 699.538 660.773C700.004 660.359 700.479 659.961 700.945 659.554C682.18 665.013 661.854 668.567 640.424 670.057C621.737 671.412 602.705 671.245 584.303 671.093C579.705 671.061 575.115 671.022 570.517 671.006C554.013 671.022 536.508 671.213 519.037 674.026C508.987 675.795 498.97 678.409 489.282 680.927C483.614 682.401 477.764 683.931 471.958 685.27C427.57 696.172 391.802 706.508 359.397 717.784C342.022 723.752 324.56 730.279 307.676 736.599C299.48 739.667 291.172 742.767 282.795 745.835C283.209 745.97 283.632 746.082 284.046 746.209C292.104 743.253 300.093 740.264 307.987 737.316C324.862 730.996 342.324 724.47 359.691 718.509C392.078 707.233 427.812 696.913 472.174 686.011ZM319.099 704.436C337.363 698.228 356.248 691.813 375.133 686.298C403.224 677.971 433.342 671.093 464.642 665.866C467.739 665.38 470.836 664.87 473.934 664.367C485.926 662.415 498.323 660.391 510.583 659.06C522.445 657.968 534.239 657.857 548.284 658.024C619.882 660 660.569 657.586 723.91 626.953C729.648 624.275 735.385 621.47 741.062 618.665C741.484 618.179 741.881 617.677 742.295 617.191C736.092 620.259 729.803 623.335 723.531 626.268C660.353 656.821 619.779 659.227 548.301 657.251C534.23 657.084 522.411 657.195 510.496 658.295C498.202 659.634 485.796 661.658 473.787 663.61C470.698 664.113 467.601 664.615 464.504 665.109C433.161 670.344 403.008 677.222 374.883 685.565C355.981 691.08 337.087 697.503 318.806 703.71C308.41 707.241 297.651 710.899 287.014 714.341C270.432 719.832 253.195 724.27 236.389 728.51C236.777 728.677 237.174 728.845 237.562 729.012C254.075 724.844 271.002 720.461 287.299 715.066C297.936 711.624 308.694 707.966 319.099 704.436ZM316.761 676.64C335.577 671.189 355.04 665.547 374.53 661.14C406.278 653.705 439.959 648.955 477.497 646.613C497.926 645.059 516.613 644.74 534.618 645.672C568.593 647.154 601.696 647.824 633.246 639.895C663.433 632.834 690.445 618.251 716.569 604.154C723.177 600.592 730.01 596.902 736.757 593.412C748.697 587.618 760.275 582.119 771.732 577.155C771.982 576.772 772.232 576.382 772.482 575.983C760.646 581.076 748.697 586.749 736.36 592.734C729.587 596.233 722.754 599.922 716.146 603.492C690.074 617.566 663.114 632.109 633.03 639.146C601.601 647.059 568.567 646.382 534.661 644.899C516.622 643.975 497.9 644.286 477.436 645.848C439.847 648.19 406.123 652.948 374.331 660.391C354.808 664.806 335.344 670.448 316.511 675.907C301.077 680.377 285.125 684.999 269.242 688.92C258.147 691.637 246.707 693.733 235.638 695.773C227.969 697.184 220.031 698.634 212.284 700.292C204.942 701.774 197.643 703.304 190.414 704.85C190.742 705.049 191.069 705.24 191.389 705.432C198.36 703.942 205.391 702.475 212.465 701.041C220.213 699.391 228.132 697.933 235.794 696.522C246.88 694.49 258.337 692.387 269.457 689.661C285.358 685.74 301.327 681.118 316.761 676.64ZM234.862 664.989C246.353 663.483 258.242 661.913 269.759 659.427C281.967 656.932 294.304 654.111 306.236 651.37C327.036 646.605 348.544 641.672 370.052 638.349C399.117 633.663 429.814 631.416 463.831 631.535C479.99 631.615 496.693 631.695 513.343 632.747L514.43 632.826C547.119 635.034 580.913 637.313 613.222 629.097C645.825 621.383 673.734 603.867 700.72 586.925C705.034 584.215 709.339 581.514 713.661 578.852C728.078 569.839 743.745 562.866 755.789 557.798C768.177 552.491 779.445 548.291 790.143 544.968C790.306 544.649 790.47 544.33 790.634 544.004C779.678 547.367 768.143 551.654 755.435 557.097C743.374 562.181 727.663 569.17 713.195 578.215C708.873 580.876 704.568 583.578 700.254 586.287C673.32 603.19 645.471 620.673 613.006 628.356C580.826 636.54 547.102 634.261 514.491 632.053L513.404 631.982C496.727 630.922 480.007 630.842 463.84 630.77C429.753 630.635 399.023 632.898 369.914 637.592C348.38 640.915 326.855 645.856 306.029 650.621C294.106 653.354 281.777 656.183 269.578 658.678C258.087 661.156 246.215 662.718 234.741 664.232C227.028 665.244 219.065 666.296 211.275 667.611C192.985 670.559 173.961 674.648 153.411 680.066C153.679 680.266 153.937 680.457 154.205 680.656C174.514 675.325 193.33 671.285 211.421 668.376C219.195 667.053 227.158 666.009 234.862 664.989ZM792.308 520.105C778.314 523.348 763.622 528.161 747.394 534.823C737.326 538.975 726.913 543.271 717.475 548.921C706.104 555.758 695.061 563.496 684.38 570.979C661.492 587.004 637.827 603.588 609.547 612.33C578.575 622.459 545.195 621.136 522.773 619.255C500.359 617.342 483.243 616.091 467.265 615.199C433.247 613.095 407.132 612.816 382.579 614.298C359.415 615.597 334.896 618.665 303.069 624.244C299.213 624.913 295.365 625.59 291.509 626.268C276.834 628.858 261.65 631.535 246.612 633.408C242.782 633.822 238.951 634.205 235.121 634.587C218.625 636.253 201.56 637.974 185.056 641.616C166.568 645.401 147.389 650.916 126.822 658.327C127.037 658.518 127.253 658.725 127.477 658.917C147.872 651.585 166.904 646.126 185.246 642.373C201.707 638.739 218.746 637.018 235.215 635.36C239.046 634.97 242.877 634.587 246.716 634.173C261.788 632.292 276.98 629.623 291.673 627.025C295.521 626.347 299.377 625.67 303.233 625.009C335.016 619.43 359.501 616.362 382.639 615.063C407.15 613.597 433.239 613.868 467.213 615.964C483.182 616.864 500.299 618.115 522.695 620.02C545.195 621.909 578.704 623.239 609.823 613.063C638.224 604.281 661.949 587.658 684.889 571.592C695.553 564.117 706.587 556.388 717.932 549.566C727.318 543.948 737.697 539.669 747.731 535.525C763.915 528.887 778.565 524.089 792.515 520.854C795.681 520.097 798.899 519.419 802.152 518.806C802.273 518.527 802.393 518.248 802.505 517.961C799.055 518.599 795.655 519.308 792.308 520.105ZM121.274 636.412C156.586 620.785 191.578 611.724 225.268 609.461C243.084 608.146 261.046 605.58 278.421 603.094C285.867 602.034 293.571 600.934 301.146 599.946C329.055 596.209 353.893 594.248 377.109 593.938C408.728 593.372 440.658 595.97 471.535 598.48C478.161 599.022 484.787 599.564 491.404 600.066C494.562 600.337 497.728 600.616 500.885 600.902C516.855 602.321 533.376 603.795 549.733 603.452C589.014 603.102 623.618 590.622 661.915 562.994C667.505 559.073 673.07 554.945 678.462 550.961C690.022 542.41 701.971 533.564 714.791 526.161C722.556 521.651 731.106 518.136 738.655 515.028C750.767 510.088 761.75 506.271 772.249 503.362C784.63 499.863 797.459 497.473 810.632 496.166C810.727 495.903 810.805 495.64 810.891 495.369C797.545 496.668 784.543 499.082 772.008 502.621C761.483 505.545 750.457 509.37 738.318 514.327C730.743 517.443 722.159 520.965 714.351 525.508C701.488 532.935 689.513 541.796 677.935 550.363C672.552 554.34 666.987 558.46 661.414 562.38C623.264 589.905 588.815 602.337 549.716 602.679C533.385 603.022 516.906 601.556 500.963 600.129C497.805 599.85 494.639 599.572 491.473 599.301C484.856 598.791 478.23 598.249 471.613 597.715C440.71 595.197 408.763 592.599 377.101 593.165C353.85 593.475 328.969 595.444 301.033 599.181C293.45 600.169 285.746 601.269 278.3 602.337C260.934 604.807 242.989 607.373 225.208 608.696C191.415 610.959 156.327 620.052 120.921 635.711C116.84 637.472 112.776 639.313 108.739 641.194C108.929 641.385 109.127 641.584 109.326 641.775C113.285 639.935 117.271 638.134 121.274 636.412ZM228.305 580.502C234.508 580.016 240.927 579.506 247.216 578.796C277.671 575.76 307.53 573.027 338.01 572.995C371.752 572.644 405.726 575.975 438.57 579.195C449.475 580.263 460.76 581.37 471.872 582.319C477.557 582.701 483.329 583.147 488.928 583.586C503.974 584.749 519.529 585.961 534.938 585.961C535.507 585.961 536.076 585.961 536.646 585.961C579.584 585.961 615.577 573.091 656.729 543.079C661.854 539.437 666.979 535.628 671.94 531.947C684.087 522.918 696.657 513.586 710.271 505.936C717.328 501.927 725.084 498.78 732.59 495.743L734.203 495.09C746.678 490.101 757.911 486.276 768.54 483.4C784.052 479.128 800.211 476.562 816.81 475.693C816.879 475.438 816.948 475.175 817.017 474.913C800.262 475.765 783.957 478.347 768.307 482.658C757.643 485.551 746.376 489.376 733.866 494.381L732.253 495.034C724.721 498.086 716.94 501.242 709.831 505.282C696.182 512.956 683.586 522.304 671.413 531.349C666.461 535.031 661.337 538.832 656.212 542.466C615.215 572.373 579.394 585.188 536.646 585.188C536.076 585.188 535.507 585.188 534.938 585.188C519.564 585.188 504.026 583.984 488.997 582.821C483.398 582.382 477.618 581.936 471.941 581.554C460.837 580.605 449.561 579.498 438.657 578.43C405.786 575.202 371.795 571.879 338.01 572.222C307.512 572.262 276.385 575.115 247.121 578.031C240.841 578.741 234.43 579.251 228.227 579.737C219.074 580.462 209.601 581.211 200.37 582.614C161.271 588.55 126.597 605.907 93.4685 624.897C93.641 625.104 93.8136 625.303 93.9947 625.503C127.02 606.576 161.59 589.284 200.499 583.371C209.713 581.976 219.16 581.227 228.305 580.502ZM188.455 554.26C199.533 551.766 211.068 551.016 222.223 550.299L226.26 550.036C255.36 548.124 281.329 547.757 305.649 548.937C336.423 550.347 366.912 554.34 390.033 557.671C394.985 558.372 399.928 559.097 404.881 559.814C421.523 562.245 438.734 564.755 455.79 566.5C466.488 567.64 477.436 568.198 488.022 568.739C490.446 568.859 492.862 568.979 495.278 569.114C518.822 570.381 549.492 570.78 577.962 562.54C611.35 553.423 638.724 533.819 665.193 514.861C673.337 509.028 681.766 502.995 690.204 497.385C698.063 492.285 704.844 488.428 711.539 485.248C717.5 482.523 723.755 480.084 729.812 477.734C731.356 477.136 732.9 476.53 734.436 475.925C756.401 467.454 774.967 462.13 792.851 459.182C802.376 457.524 811.944 456.592 821.494 456.201C821.546 455.946 821.598 455.683 821.65 455.428C811.996 455.811 802.333 456.743 792.705 458.425C774.751 461.381 756.142 466.72 734.117 475.215C732.572 475.829 731.028 476.427 729.484 477.024C723.419 479.383 717.155 481.822 711.168 484.563C704.43 487.759 697.614 491.631 689.72 496.764C681.266 502.374 672.837 508.414 664.684 514.255C638.276 533.166 610.962 552.722 577.72 561.806C549.371 570.007 518.804 569.608 495.329 568.341C492.914 568.214 490.49 568.086 488.065 567.967C477.497 567.425 466.557 566.867 455.885 565.735C438.838 563.99 421.643 561.48 405.01 559.057C400.058 558.332 395.106 557.607 390.162 556.906C367.015 553.582 336.509 549.574 305.692 548.172C281.337 546.984 255.334 547.351 226.2 549.263L222.162 549.526C210.973 550.251 199.403 551.001 188.257 553.511C171.951 556.993 155.447 563.089 137.813 572.15C117.22 582.653 98.0841 595.683 79.5785 608.29C79.7338 608.497 79.8977 608.704 80.0702 608.911C98.55 596.32 117.668 583.299 138.218 572.828C155.784 563.799 172.219 557.726 188.455 554.26ZM81.8992 581.594C107.298 561.998 133.56 541.733 164.868 529.516C179.44 523.723 195.987 520.678 215.485 520.2C231.092 519.515 247.182 519.706 263.297 520.758C300.11 522.934 336.44 530.257 371.579 537.334C394.234 541.9 417.666 546.626 441.02 549.925C468.421 553.543 496.511 553.399 517.924 552.865C560.164 551.542 596.502 539.573 635.739 514.048C643.098 509.386 650.406 504.43 657.471 499.632C667.885 492.564 678.652 485.248 689.798 478.754C701.393 471.709 714.489 466.776 727.146 462.011C730.7 460.672 734.375 459.285 737.964 457.875C770.886 445.1 798.675 438.303 825.057 436.574C825.092 436.311 825.135 436.048 825.178 435.793C798.658 437.514 770.731 444.335 737.645 457.166C734.056 458.576 730.381 459.963 726.835 461.293C714.136 466.083 701.005 471.024 689.349 478.108C678.186 484.611 667.41 491.934 656.98 499.011C649.923 503.8 642.615 508.757 635.265 513.419C596.157 538.848 559.965 550.777 517.89 552.1C496.52 552.626 468.481 552.77 441.141 549.16C417.813 545.868 394.398 541.151 371.752 536.585C336.587 529.492 300.231 522.169 263.349 519.993C247.207 518.933 231.083 518.742 215.45 519.427C195.858 519.906 179.207 522.974 164.532 528.807C133.12 541.071 106.806 561.368 81.3643 581.004C76.7401 584.574 72.0037 588.216 67.2414 591.818C67.3967 592.033 67.552 592.248 67.7073 592.463C72.4954 588.845 77.2491 585.188 81.8992 581.594ZM81.3298 556.093C100.595 539.661 120.515 522.671 143.309 509.466C157.958 501.107 172.357 495.743 186.083 493.512C204.873 490.851 224.147 491.671 238.839 492.683C278.171 495.712 316.614 505.362 353.789 514.694C358.975 516.001 364.151 517.3 369.336 518.583C407.477 528.018 442.013 535.716 478.101 534.592C479.317 534.6 480.525 534.6 481.724 534.6C565.194 534.6 601.118 514.917 667.108 474.522C677.159 468.641 688.073 462.497 699.823 457.492C704.628 455.492 709.641 453.707 714.489 451.978C719.286 450.272 724.256 448.503 729.018 446.527C732.521 445.132 736.015 443.722 739.509 442.319C757.264 435.155 775.623 427.752 794.577 422.684C805.025 419.759 816.042 417.584 827.568 416.149C827.594 415.886 827.62 415.623 827.645 415.368C815.999 416.803 804.878 418.994 794.344 421.951C775.338 427.027 756.953 434.438 739.172 441.61C735.687 443.021 732.193 444.431 728.69 445.818C723.936 447.794 718.976 449.555 714.187 451.261C709.33 452.99 704.309 454.783 699.478 456.791C687.684 461.819 676.736 467.971 666.651 473.884C600.799 514.192 564.961 533.835 481.698 533.835C480.508 533.835 479.3 533.827 478.092 533.819C442.099 534.975 407.633 527.261 369.552 517.842C364.367 516.559 359.19 515.252 354.005 513.953C316.796 504.613 278.318 494.955 238.908 491.918C224.164 490.898 204.83 490.085 185.953 492.755C172.107 494.994 157.613 500.397 142.869 508.813C120.006 522.057 100.06 539.071 80.7604 555.527C72.875 562.253 64.7826 569.13 56.4917 575.768C56.6384 575.991 56.7765 576.214 56.9231 576.446C65.2571 569.768 73.3927 562.858 81.3298 556.093ZM81.1832 531.453C98.5672 515.467 116.547 498.947 137.088 485.543C159.614 471.087 178.482 465.653 204.373 466.179C249.011 466.489 292.018 478.244 333.619 489.615C342.488 492.046 351.667 494.548 360.683 496.899C394.761 505.761 425.621 513.1 457.697 513.1C458.154 513.1 458.629 513.092 459.095 513.092C548.681 511.586 583.915 500.174 658.524 461.7C669.955 456.034 682.197 450.105 695.121 445.228C699.107 443.754 703.222 442.407 707.208 441.1C713.411 439.076 719.813 436.98 725.86 434.35C735.307 430.414 744.72 426.047 753.821 421.823C767.34 415.543 781.317 409.049 795.69 403.885C806.957 399.669 817.966 396.537 828.966 394.282C828.974 394.019 828.991 393.756 829 393.493C817.888 395.748 806.767 398.912 795.379 403.168C780.972 408.347 766.978 414.842 753.451 421.13C744.357 425.353 734.953 429.72 725.515 433.649C719.493 436.263 713.109 438.351 706.941 440.375C702.938 441.682 698.814 443.029 694.811 444.511C681.844 449.404 669.584 455.349 658.127 461.023C583.647 499.425 548.491 510.813 459.077 512.319C426.647 512.534 395.416 505.123 360.916 496.158C351.9 493.807 342.729 491.305 333.852 488.874C292.208 477.487 249.14 465.716 204.39 465.406C178.31 464.872 159.304 470.346 136.614 484.906C116.003 498.349 98.0065 514.893 80.5965 530.903C69.8727 540.752 58.8125 550.913 47.2087 560.292C47.3381 560.523 47.4762 560.755 47.6056 560.994C59.2784 551.566 70.4076 541.358 81.1832 531.453ZM762.224 401.414C751.104 407.662 739.612 414.117 727.845 419.727C718.346 424.477 707.89 427.569 697.778 430.549C691.67 432.35 685.364 434.215 679.316 436.43C669.705 439.865 659.999 443.531 650.613 447.077C624.532 456.926 597.572 467.111 569.654 473.438C533.247 482.196 495.122 484.356 458.249 486.444L454.608 486.651C412.99 488.548 372.485 478.076 333.334 467.948C328.52 466.704 323.723 465.461 318.944 464.25L313.017 462.728C274.893 452.942 235.483 442.797 194.822 443.116C186.963 443.26 178.62 443.555 170.588 445.427C161.115 447.587 151.289 451.635 141.393 457.46C120.878 469.669 103.752 485.997 87.1964 501.784L85.54 503.362C82.5808 506.167 79.6302 509.004 76.6711 511.841C64.7222 523.308 52.5404 534.999 39.2457 545.51C39.3665 545.749 39.4873 545.988 39.6081 546.227C53.0063 535.66 65.2571 523.914 77.275 512.375C80.2255 509.538 83.1847 506.709 86.1352 503.896L87.7917 502.326C104.322 486.563 121.412 470.275 141.842 458.106C151.66 452.328 161.4 448.32 170.787 446.184C178.741 444.32 187.032 444.033 194.831 443.889C195.4 443.889 195.97 443.881 196.539 443.881C236.466 443.881 275.264 453.842 312.792 463.477L318.719 464.991C323.499 466.21 328.296 467.446 333.101 468.689C372.33 478.833 412.878 489.328 454.66 487.424L458.301 487.209C495.209 485.129 533.376 482.961 569.852 474.187C597.831 467.852 624.826 457.652 650.923 447.794C660.31 444.248 670.016 440.582 679.626 437.147C685.648 434.948 691.946 433.083 698.029 431.29C708.183 428.286 718.674 425.194 728.233 420.405C740.018 414.794 751.535 408.324 762.664 402.076C779.194 392.784 796.294 383.181 814.601 376.209C819.32 374.32 824.108 372.654 828.974 371.164C828.966 370.901 828.948 370.63 828.94 370.367C823.979 371.881 819.087 373.579 814.273 375.499C795.914 382.496 778.789 392.115 762.224 401.414ZM71.3825 497.807L72.9872 496.261C77.0507 492.333 81.1573 488.261 85.1172 484.324C103.399 466.178 122.301 447.404 146.181 434.741C154.041 430.74 161.857 427.991 169.406 426.565C176.136 425.282 183.132 425.098 189.887 424.923C229.133 424.54 267.654 432.796 304.907 440.797C314.768 442.917 324.974 445.108 335.008 447.093C370.958 454.321 409.263 461.094 447.698 457.827C461.648 456.648 475.866 455.771 489.618 454.918C519.27 453.093 549.923 451.197 579.739 446.184C610.694 441.307 640.571 433.601 668.523 426.126C676.71 423.959 684.742 421.839 692.913 419.807L693.654 419.632C700.841 417.918 708.269 416.149 715.128 413.24C734.203 405.104 751.112 393.43 767.47 382.137C778.789 374.32 790.496 366.247 802.816 359.402C811.176 354.565 819.346 350.564 827.395 347.265C827.369 346.994 827.344 346.723 827.318 346.452C819.148 349.783 810.865 353.84 802.385 358.748C790.03 365.602 778.306 373.698 766.97 381.516C750.647 392.792 733.772 404.443 714.783 412.539C707.984 415.424 700.591 417.185 693.447 418.882L692.697 419.066C684.518 421.098 676.486 423.218 668.29 425.385C640.363 432.852 610.513 440.55 579.593 445.427C549.82 450.432 519.184 452.328 489.566 454.153C475.806 454.998 461.579 455.875 447.62 457.054C409.315 460.321 371.07 453.556 335.18 446.344C325.155 444.351 314.958 442.168 305.097 440.048C267.801 432.031 229.245 423.783 189.87 424.15C183.072 424.333 176.041 424.517 169.242 425.816C161.607 427.25 153.713 430.031 145.776 434.071C121.775 446.798 102.829 465.613 84.5047 483.806C80.5447 487.743 76.4468 491.807 72.3833 495.728L70.7786 497.281C58.5192 509.115 46.0613 521.133 32.4388 531.492C32.5509 531.739 32.6717 531.986 32.7838 532.234C46.5099 521.818 59.0454 509.721 71.3825 497.807ZM78.733 472.259C91.8983 459.038 105.512 445.363 120.558 433.346C135.147 421.871 148.01 414.946 161.012 411.543C173.823 408.459 187.36 408.626 200.439 408.778C202 408.802 203.553 408.818 205.097 408.834C234.275 409.742 263.522 413.687 291.811 417.504C302.586 418.954 313.724 420.452 324.698 421.767C347.94 424.604 378.533 427.776 409.082 427.146C419.711 427.075 430.435 426.039 440.813 425.035C448.647 424.285 456.748 423.505 464.746 423.138C482.725 422.229 501.015 422.134 518.71 422.03C525.836 421.99 533.195 421.951 540.433 421.855C586.943 421.512 627.362 418.213 664.002 411.774C666.392 411.336 668.791 410.898 671.189 410.467C681.904 408.547 692.982 406.554 703.636 403.702C721.573 398.123 736.377 387.429 751.216 376.033C756.548 371.881 761.897 367.562 767.064 363.378C784.811 349.034 803.144 334.236 824.22 323.334C824.177 323.063 824.126 322.792 824.074 322.529C802.816 333.479 784.371 348.373 766.521 362.797C761.344 366.98 755.996 371.3 750.681 375.443C735.903 386.791 721.167 397.438 703.395 402.968C692.792 405.805 681.723 407.79 671.034 409.718C668.627 410.148 666.228 410.579 663.838 411.017C627.25 417.448 586.883 420.739 540.424 421.09C533.186 421.186 525.827 421.225 518.71 421.257C501.006 421.361 482.699 421.456 464.702 422.373C456.688 422.731 448.569 423.512 440.727 424.27C430.366 425.266 419.659 426.302 409.073 426.381C378.576 427.003 348.018 423.839 324.81 421.01C313.836 419.695 302.698 418.197 291.932 416.739C263.625 412.922 234.353 408.977 205.115 408.061C203.562 408.045 202.009 408.029 200.456 408.013C187.308 407.853 173.729 407.686 160.788 410.802C147.665 414.237 134.707 421.209 120.015 432.764C104.934 444.814 91.303 458.504 78.1205 471.741C65.8006 484.125 53.0494 496.923 39.1594 508.35C34.9062 511.849 30.7392 515.068 26.6326 518.009C26.7361 518.256 26.8396 518.511 26.9431 518.758C31.1274 515.77 35.3807 512.494 39.7116 508.924C53.6361 497.473 66.3959 484.659 78.733 472.259ZM77.5597 456.6C84.6513 449.46 91.9846 442.08 99.4386 435.036C113.76 421.672 129.384 407.973 149.115 400.147C161.944 394.991 176.127 394.649 189.836 394.314C192.864 394.242 195.987 394.163 199.024 394.035C221.576 393.661 244.481 394.426 266.628 395.167C270.286 395.286 273.935 395.414 277.593 395.525C314.751 396.769 346.008 397.263 377.756 395.629C390.818 394.975 403.863 393.955 416.545 392.609C420.082 392.258 423.679 391.812 427.156 391.389C432.462 390.736 437.949 390.059 443.358 389.676C472.105 387.588 500.609 389.907 528.174 392.154L533.126 392.569C575.538 396.179 619.408 399.916 662.665 395.39C670.714 394.553 678.703 393.453 686.399 392.123C696.122 390.585 703.654 388.425 710.115 385.333C728.837 376.511 743.96 362.892 758.592 349.72C760.007 348.452 761.414 347.177 762.837 345.91L766.702 342.38C783.275 327.231 800.167 311.787 819.622 300.646C819.553 300.375 819.493 300.113 819.432 299.842C799.814 311.038 782.801 326.586 766.115 341.83L762.25 345.36C760.836 346.628 759.421 347.895 758.006 349.17C743.426 362.303 728.345 375.874 709.727 384.648C703.352 387.7 695.889 389.835 686.252 391.366C678.574 392.696 670.602 393.796 662.57 394.625C619.399 399.135 575.572 395.414 533.203 391.804L528.251 391.381C500.652 389.142 472.122 386.823 443.298 388.911C437.863 389.294 432.367 389.971 427.053 390.624C423.576 391.047 419.987 391.493 416.45 391.844C403.793 393.19 390.758 394.202 377.713 394.856C345.99 396.49 314.759 395.996 277.627 394.76C273.969 394.641 270.311 394.521 266.653 394.394C244.498 393.653 221.593 392.888 198.998 393.262C195.961 393.39 192.838 393.469 189.818 393.541C176.023 393.876 161.754 394.226 148.778 399.438C128.918 407.319 113.225 421.074 98.8433 434.494C91.372 441.554 84.0388 448.934 76.9471 456.074C65.7402 467.358 54.1451 479.025 41.7563 489.671C34.7854 495.656 28.1423 500.804 21.6546 505.235C21.7495 505.49 21.8444 505.745 21.9393 506C28.5133 501.513 35.2599 496.301 42.3257 490.237C54.7404 479.566 66.3442 467.892 77.5597 456.6ZM72.5903 444.75C75.2389 442.072 77.8961 439.395 80.5534 436.725C91.6136 425.616 104.158 413.025 118.393 402.251C132.093 391.915 144.827 385.604 157.285 382.95C165.627 381.452 174.281 380.966 182.649 380.488C186.566 380.265 190.612 380.034 194.564 379.707C201.603 379.261 208.643 378.838 215.675 378.416C228.693 377.627 242.152 376.814 255.386 375.882C310.161 372.383 364.211 365.235 419.366 357.585C445.645 353.784 471.941 356.222 494.191 359.099C509.401 361.099 524.852 363.665 539.786 366.152C579.109 372.694 619.761 379.46 660.776 376.719L661.397 376.663C676.926 375.324 692.999 373.937 706.828 366.949C724.256 358.27 738.62 344.898 751.285 333.104C755.659 329.04 760.059 324.785 764.312 320.68C779.514 305.986 795.146 290.884 814.075 279.935C813.997 279.672 813.928 279.417 813.85 279.162C794.741 290.167 779.005 305.364 763.708 320.147C759.455 324.259 755.064 328.506 750.69 332.562C738.059 344.317 723.747 357.649 706.423 366.271C692.749 373.188 676.771 374.567 661.311 375.898L660.698 375.953C619.805 378.687 579.204 371.929 539.933 365.395C524.99 362.908 509.53 360.342 494.303 358.334C471.992 355.449 445.619 353.011 419.236 356.828C364.099 364.47 310.075 371.618 255.326 375.117C242.091 376.049 228.633 376.854 215.623 377.643C208.583 378.065 201.543 378.496 194.503 378.942C190.552 379.269 186.506 379.5 182.597 379.723C174.203 380.201 165.524 380.687 157.112 382.201C144.508 384.879 131.67 391.246 117.867 401.653C103.588 412.467 91.0269 425.074 79.9408 436.207C77.2836 438.869 74.6264 441.546 71.9778 444.232C55.2063 461.182 37.8912 478.682 17.3323 492.612C17.4186 492.875 17.5048 493.138 17.5825 493.393C38.314 479.399 55.7239 461.804 72.5903 444.75ZM753.062 299.929C745.574 307.03 737.835 314.377 729.794 321.222C718.838 330.49 706.673 339.814 692.05 345.305C683.776 348.381 674.726 349.6 666.746 350.676C653.141 352.365 638.905 352.74 623.221 351.839C591.981 350.03 561.234 343.48 531.504 337.144C510.988 332.769 489.773 328.251 468.559 325.318C452.236 323.151 438.751 322.402 426.121 322.968C416.338 323.382 406.571 324.936 397.133 326.442C371.657 330.721 346.103 336.595 321.403 342.269C298.756 347.472 275.341 352.851 252.039 356.995C231.514 360.741 210.999 363.729 191.069 365.873C185.66 366.574 180.121 366.996 174.755 367.411C167.879 367.945 160.77 368.495 153.843 369.626C140.6 372.24 127.046 378.655 112.397 389.214C97.6614 399.892 84.4616 412.436 71.7017 424.572C69.2602 426.883 66.8187 429.21 64.3685 431.537C48.1664 446.949 31.5329 462.76 12.2249 475.407C12.2939 475.678 12.363 475.941 12.432 476.211C31.9125 463.501 48.6668 447.587 64.9638 432.071C67.4139 429.744 69.8555 427.417 72.3056 425.114C85.0482 412.993 98.2221 400.466 112.914 389.828C127.46 379.332 140.902 372.973 153.998 370.383C160.874 369.26 167.965 368.71 174.824 368.184C180.199 367.769 185.755 367.339 191.173 366.638C211.119 364.494 231.652 361.498 252.194 357.744C275.514 353.608 298.946 348.221 321.601 343.018C346.292 337.344 371.829 331.479 397.28 327.207C406.692 325.701 416.424 324.147 426.164 323.741C438.734 323.175 452.167 323.916 468.438 326.076C489.61 329.008 510.807 333.519 531.314 337.894C561.078 344.237 591.861 350.795 623.161 352.604C638.905 353.513 653.192 353.13 666.858 351.441C674.89 350.357 683.992 349.13 692.36 346.014C707.113 340.483 719.338 331.104 730.355 321.796C738.422 314.935 746.169 307.579 753.658 300.463C760.43 294.04 767.435 287.386 774.648 281.122C785.639 271.392 796.19 263.87 806.802 258.267C806.716 258.036 806.629 257.805 806.534 257.566C796.035 263.081 785.354 270.579 774.07 280.565C766.849 286.836 759.835 293.49 753.062 299.929ZM723.781 289.514C712.013 299.156 698.063 309.946 681.412 315.851C660.888 322.242 637.197 324.593 609.012 323.031C577.03 321.103 545.584 313.979 515.172 307.077C509.927 305.89 504.69 304.703 499.445 303.539C471.518 297.483 442.634 291.211 413.051 292.916C376.246 295.985 341.15 308.36 307.202 320.338C299.826 322.936 292.199 325.629 284.702 328.163C264.186 335.256 237.062 344.125 209.195 349.831C193.649 353.154 176.739 355.386 154.352 357.051C130.048 360.039 109.291 373.029 93.9257 384.002C81.0365 393.159 68.6477 403.558 56.6643 413.615C40.8073 426.923 24.6138 440.486 6.68618 451.707C6.74657 451.978 6.80696 452.249 6.85872 452.528C24.9502 441.244 41.2559 427.593 57.2251 414.189C69.1998 404.14 81.5714 393.748 94.4347 384.616C109.722 373.698 130.359 360.781 154.438 357.816C176.843 356.143 193.796 353.911 209.377 350.58C237.295 344.866 264.453 335.989 284.995 328.889C292.492 326.346 300.119 323.653 307.504 321.055C341.392 309.102 376.436 296.742 413.111 293.682C442.582 291.992 471.389 298.248 499.246 304.288C504.492 305.452 509.728 306.639 514.974 307.827C545.42 314.728 576.901 321.868 608.96 323.804C637.258 325.374 661.052 323.007 681.688 316.576C698.494 310.624 712.514 299.778 724.333 290.088C730.131 285.33 735.928 280.222 741.536 275.289C758.541 260.315 776.037 244.935 797.424 235.436C797.32 235.197 797.217 234.958 797.105 234.719C775.588 244.266 758.032 259.702 740.958 274.731C735.359 279.664 729.57 284.764 723.781 289.514ZM717.871 253.741C701.626 265.965 684.829 278.604 664.261 284.302C638.155 291.793 609.564 294.327 579.299 291.825C551.105 289.585 523.247 283.521 496.313 277.664C490.817 276.468 485.339 275.273 479.852 274.11C426.276 262.714 395.002 259.718 339.787 281.401C323.602 287.792 307.53 295.196 291.983 302.352C259.51 317.31 225.941 332.769 189.473 339.814C180.984 341.48 172.512 342.675 164.299 343.368C162.116 343.552 159.89 343.687 157.742 343.822C152.902 344.117 147.898 344.428 143.015 345.281C116.538 349.512 92.8904 362.502 77.413 371.905C64.5152 379.755 51.9797 388.417 39.8583 396.792C28.5737 404.594 16.9096 412.659 4.97797 420.038C4.03759 420.628 3.07133 421.217 2.09644 421.815C2.12232 422.094 2.16546 422.381 2.19997 422.668C3.30427 421.998 4.38268 421.337 5.44384 420.683C17.3927 413.288 29.0741 405.216 40.3586 397.414C52.4714 389.039 64.9983 380.384 77.8789 372.551C93.2959 363.187 116.831 350.246 143.162 346.038C148.002 345.193 152.988 344.89 157.802 344.587C159.951 344.46 162.185 344.325 164.376 344.141C172.624 343.44 181.122 342.245 189.646 340.571C226.217 333.511 259.838 318.019 292.354 303.045C307.892 295.889 323.956 288.494 340.115 282.111C395.097 260.515 426.268 263.503 479.662 274.859C485.149 276.022 490.636 277.218 496.123 278.413C523.084 284.278 550.976 290.35 579.23 292.59C609.607 295.108 638.293 292.566 664.503 285.043C685.226 279.297 702.092 266.611 718.406 254.347L720.209 252.992C745.254 233.428 764.053 219.514 785.976 212.286C785.881 212.111 785.786 211.936 785.691 211.76C763.311 219.14 744.271 233.189 719.675 252.394L717.871 253.741ZM9.36928 381.922C14.5198 378.958 19.8429 375.882 25.1055 372.925C51.1601 358.143 79.6302 343.424 111.336 335.814C121.775 333.287 132.386 331.59 142.886 330.761C145.819 330.562 148.821 330.419 151.72 330.275C158.484 329.948 165.489 329.606 172.305 328.522C196.194 325.167 221.049 316.808 250.52 302.216C262.417 296.351 274.211 289.928 285.616 283.712C298.739 276.556 312.309 269.161 326.104 262.579C357.465 247.525 383.649 240.895 408.487 241.748C432.134 242.473 455.48 247.119 478.058 251.613C487.824 253.558 497.926 255.566 507.899 257.231C568.204 268.205 616.155 264.826 663.398 246.258C679.057 239.604 693.266 230.312 707.001 221.323C722.478 211.202 738.473 200.739 756.556 194.053C761.879 192.069 767.246 190.587 772.655 189.503C772.5 189.272 772.353 189.041 772.198 188.802C766.849 189.885 761.526 191.368 756.246 193.336C738.077 200.054 722.038 210.549 706.526 220.693C692.809 229.659 678.634 238.934 663.062 245.557C615.991 264.053 568.196 267.424 508.055 256.474C498.082 254.809 487.996 252.801 478.23 250.856C455.618 246.362 432.238 241.708 408.521 240.975C383.537 240.138 357.215 246.776 325.716 261.893C311.904 268.484 298.324 275.887 285.185 283.043C273.797 289.259 262.012 295.682 250.124 301.539C220.739 316.082 195.97 324.418 172.167 327.765C165.395 328.841 158.415 329.175 151.677 329.502C148.77 329.646 145.767 329.789 142.817 329.996C132.274 330.825 121.611 332.53 111.12 335.065C79.3197 342.699 50.7805 357.457 24.6742 372.264C19.4029 375.228 14.0798 378.296 8.92066 381.269C5.97011 382.966 2.99368 384.68 0 386.393C0 386.688 0.00862674 386.991 0.00862674 387.293C3.14897 385.5 6.27207 383.707 9.36928 381.922ZM67.69 322.569C85.3502 318.091 104.9 315.254 125.804 314.146C131.032 313.819 136.372 313.708 141.531 313.604C150.944 313.413 160.675 313.214 170.157 311.668C210.999 305.523 246.224 284.764 280.285 264.69L285.375 261.702C307.909 248.489 331.212 234.823 357.016 226.798C390.042 215.824 424.49 221.753 457.801 227.483C462.615 228.312 467.593 229.165 472.441 229.945C493.682 233.484 516.561 236.759 540.053 236.783C540.416 236.783 540.778 236.783 541.141 236.783C561.337 236.783 581.404 234.201 600.799 229.109C612.023 226.192 623.92 222.263 637.154 217.107C650.164 212.238 661.699 207.027 672.414 201.161C676.728 198.858 681.11 196.42 685.355 194.061C705.457 182.881 726.249 171.31 749.982 167.979C752.45 167.628 754.917 167.389 757.385 167.198C757.203 166.959 757.022 166.711 756.841 166.472C754.512 166.656 752.191 166.887 749.862 167.214C725.964 170.576 705.094 182.179 684.924 193.408C680.688 195.758 676.305 198.197 672 200.5C661.311 206.341 649.819 211.537 636.835 216.398C623.626 221.538 611.764 225.459 600.574 228.368C581.249 233.444 561.259 236.01 541.141 236.01C540.778 236.01 540.416 236.01 540.062 236.01C516.63 235.986 493.785 232.719 472.588 229.188C467.739 228.407 462.77 227.555 457.956 226.726C424.534 220.972 389.964 215.028 356.74 226.073C330.849 234.129 307.504 247.812 284.926 261.056L279.836 264.045C245.844 284.079 210.697 304.79 170.019 310.911C160.589 312.449 150.892 312.648 141.505 312.839C136.338 312.943 130.989 313.054 125.752 313.381C104.788 314.489 85.1776 317.334 67.4657 321.828C44.3013 327.422 22.6209 336.706 1.74272 347.018C1.70821 347.321 1.68233 347.632 1.64782 347.934C22.6381 337.543 44.4221 328.187 67.69 322.569ZM120.308 293.721C135.527 294.215 151.263 294.733 166.654 292.494C206.668 286.852 241.453 266.093 275.082 246.027C313.569 223.06 349.924 201.337 392.172 201.99C410.825 202.301 429.451 205.074 447.465 207.752C460.009 209.625 472.976 211.553 485.857 212.637C518.537 215.824 548.819 213.195 575.874 204.811C592.784 199.775 609.02 192.571 622.91 186.204C625.041 185.231 627.181 184.259 629.32 183.287C638.552 179.103 648.094 174.784 657.23 170.106L659.904 168.759C680.826 158.224 702.446 147.339 726.559 145.378C730.985 145.02 735.376 144.932 739.75 145.044C739.526 144.781 739.293 144.526 739.069 144.263C734.902 144.183 730.709 144.271 726.49 144.613C702.196 146.59 680.498 157.515 659.507 168.082L656.824 169.437C647.705 174.099 638.172 178.418 628.95 182.602C626.819 183.574 624.679 184.538 622.539 185.518C608.675 191.87 592.473 199.066 575.607 204.078C548.672 212.43 518.502 215.051 485.943 211.88C473.08 210.788 460.13 208.86 447.603 206.995C429.555 204.309 410.902 201.536 392.181 201.225C349.683 200.628 313.224 222.351 274.634 245.381C241.073 265.408 206.366 286.119 166.525 291.729C151.22 293.968 135.518 293.45 120.334 292.956C112.492 292.701 104.373 292.43 96.4277 292.55C95.4873 292.542 94.5555 292.542 93.6238 292.542C60.1584 292.542 33.3619 297.387 8.18734 306.312C8.11832 306.615 8.06655 306.918 7.99753 307.221C33.9227 297.977 61.5474 293.06 96.4277 293.323C104.365 293.203 112.474 293.466 120.308 293.721ZM76.2742 267.535C84.2372 268.093 92.3124 268.914 100.12 269.711C112.06 270.922 124.415 272.173 136.657 272.524C156.629 273.122 177.395 269.735 198.394 262.451C224.569 253.398 248.553 239.676 271.752 226.415C277.533 223.108 283.511 219.689 289.421 216.398C313.086 203.297 338.58 190.164 367.24 186.204C387.54 183.486 408.073 186.14 427.924 188.706C430.581 189.049 433.239 189.391 435.879 189.726C459.293 192.81 482.25 195.456 505.725 193.95C526.992 192.706 548.111 187.766 568.515 179.271C584.191 172.728 599.228 164.616 613.774 156.774C623.877 151.331 634.316 145.705 644.884 140.645C662.329 131.919 681.283 123.663 701.678 122.356C707.519 121.997 713.282 122.149 718.984 122.659C718.7 122.372 718.415 122.093 718.13 121.814C712.695 121.368 707.199 121.248 701.626 121.591C681.067 122.906 662.018 131.194 644.496 139.96C633.919 145.028 623.463 150.662 613.36 156.113C598.832 163.946 583.811 172.043 568.179 178.569C547.87 187.024 526.836 191.941 505.674 193.184C482.276 194.683 459.362 192.037 435.999 188.961C433.351 188.626 430.694 188.284 428.036 187.941C408.124 185.367 387.54 182.705 367.119 185.439C338.303 189.423 312.723 202.596 288.99 215.737C283.08 219.028 277.101 222.447 271.312 225.754C248.156 239.006 224.198 252.705 198.101 261.726C177.205 268.978 156.543 272.356 136.691 271.751C124.466 271.4 112.138 270.149 100.215 268.946C92.3987 268.149 84.3149 267.328 76.3346 266.77C53.9726 265.121 35.4756 265.71 18.6178 268.627C18.5229 268.906 18.4452 269.185 18.3503 269.456C35.2513 266.491 53.8 265.878 76.2742 267.535ZM70.908 241.341C76.7919 242.178 82.7792 243.15 88.5595 244.098C103.226 246.497 118.393 248.983 133.629 249.358C152.764 249.812 172.633 246.864 192.674 240.576C219.427 232.233 244.128 219.092 268.025 206.373C274.28 203.042 280.759 199.6 287.161 196.3C311.809 183.63 340.754 169.995 372.269 168.481C390.361 167.835 408.487 170.13 426 172.354C438.07 173.884 450.545 175.469 462.925 176.075C504.75 178.912 540.097 170.329 577.548 148.263C585.062 143.968 592.577 139.274 599.841 134.732C620.495 121.822 641.847 108.482 666.435 102.202C675.123 100.051 684.587 99.3575 694.457 100.099C694.12 99.8197 693.801 99.5248 693.465 99.2459C683.88 98.6323 674.683 99.3575 666.22 101.453C641.494 107.773 620.081 121.153 599.375 134.094C592.111 138.637 584.605 143.322 577.099 147.618C539.803 169.588 504.612 178.131 462.977 175.31C450.623 174.704 438.165 173.119 426.112 171.588C408.556 169.365 390.404 167.054 372.226 167.716C340.529 169.238 311.49 182.92 286.755 195.623C280.345 198.93 273.866 202.381 267.602 205.712C243.748 218.406 219.082 231.531 192.407 239.851C172.452 246.107 152.695 249.055 133.646 248.593C118.47 248.21 103.338 245.732 88.7062 243.341C82.9173 242.393 76.9299 241.421 71.0288 240.584C59.3819 238.847 45.5695 237.205 30.9203 237.173C30.8082 237.428 30.6874 237.691 30.5753 237.946C45.3021 237.954 59.2007 239.604 70.908 241.341ZM81.3557 219.171C93.365 221.474 105.788 223.857 118.255 225.005C129.531 226.001 141.359 225.826 153.394 224.487C191.337 220.319 226.131 204.126 261.391 186.475C263.608 185.383 265.834 184.283 268.06 183.175C295.477 169.572 323.835 155.515 355.127 151.172C375.427 148.367 395.908 151.068 415.708 153.682C419.694 154.208 423.671 154.726 427.631 155.212C489.264 163.675 527.207 156.431 572.622 127.544C579.446 123.36 586.167 118.762 593.284 113.893C616.569 97.9629 640.545 81.5786 668.523 79.9052C668.187 79.6661 667.859 79.435 667.522 79.1959C639.725 81.1882 615.914 97.4609 592.792 113.271C585.683 118.14 578.963 122.731 572.156 126.906C526.931 155.674 489.144 162.878 427.752 154.447C423.783 153.969 419.806 153.443 415.829 152.917C395.968 150.303 375.427 147.594 354.997 150.415C323.568 154.774 295.15 168.871 267.663 182.498C265.437 183.598 263.22 184.698 260.994 185.797C225.803 203.417 191.087 219.578 153.29 223.73C141.316 225.053 129.557 225.228 118.332 224.24C105.909 223.1 93.5116 220.717 81.5283 218.414C78.9573 217.92 76.3864 217.426 73.8154 216.948C63.963 215.075 53.7483 213.25 43.2833 212.023C43.1539 212.27 43.0159 212.509 42.8864 212.756C53.429 213.976 63.7301 215.824 73.6515 217.705C76.2224 218.183 78.7848 218.677 81.3557 219.171ZM75.2217 196.268C85.2811 198.125 95.6857 200.046 106.064 201.337C164.704 208.716 212.06 185.478 262.193 160.862C268.707 157.667 275.445 154.36 282.114 151.172C304.873 140.557 331.954 129.512 360.251 128.07C374.53 127.353 388.678 129.122 401.947 131.01C406.019 131.608 410.109 132.23 414.189 132.851C435.896 136.174 458.335 139.601 480.853 138.764C503.819 138.095 527.156 132.214 548.344 121.758C564.547 113.957 579.575 103.852 593.577 94.1776L595.018 93.2054C610.858 82.4871 628.242 70.7328 647.541 65.8C647.239 65.6088 646.946 65.4175 646.644 65.2263C627.483 70.2945 610.245 81.9452 594.526 92.5838L593.086 93.564C579.109 103.222 564.106 113.295 547.956 121.081C526.88 131.473 503.663 137.322 480.827 137.991C458.37 138.82 435.991 135.409 414.327 132.094C410.238 131.465 406.157 130.843 402.077 130.245C388.756 128.357 374.555 126.572 360.208 127.297C331.747 128.755 304.571 139.832 281.734 150.479C275.057 153.674 268.319 156.981 261.796 160.177C211.792 184.737 164.549 207.927 106.177 200.572C95.8237 199.281 85.4364 197.368 75.3856 195.511C68.6822 194.276 61.8062 193.009 54.9216 191.925C54.7749 192.156 54.6282 192.396 54.4816 192.635C61.4611 193.734 68.432 195.009 75.2217 196.268ZM104.123 179.43C126.606 181.534 149.986 179.438 173.608 173.206C197.419 166.998 219.617 157.252 240.055 147.65C244.869 145.394 249.822 143.028 254.61 140.733C293.295 122.181 333.308 103.007 377.282 107.781C389.481 108.857 401.723 110.801 413.568 112.682C421.937 114.005 430.581 115.383 439.148 116.435C482.932 122.42 519.072 117.304 552.848 100.33C566.539 93.7154 579.308 85.4277 591.654 77.4109C594.518 75.5461 597.373 73.6893 600.246 71.8565C609.711 65.9116 619.891 60.0145 630.96 55.9025C630.666 55.7352 630.382 55.5599 630.088 55.3925C619.166 59.5205 609.115 65.3538 599.772 71.219C596.899 73.0598 594.035 74.9166 591.17 76.7733C578.851 84.7822 566.108 93.054 552.46 99.6523C518.839 116.547 482.872 121.639 439.269 115.678C430.711 114.618 422.066 113.247 413.706 111.925C401.852 110.036 389.584 108.092 377.368 107.016C333.144 102.194 293.027 121.448 254.222 140.047C249.442 142.342 244.49 144.709 239.684 146.964C219.272 156.551 197.126 166.273 173.383 172.465C149.857 178.673 126.589 180.761 104.218 178.665C93.27 177.605 82.2702 175.836 71.6327 174.123C70.1747 173.884 68.7167 173.652 67.25 173.413C67.0775 173.652 66.9136 173.884 66.7496 174.115C68.3284 174.37 69.9159 174.625 71.486 174.88C82.1408 176.593 93.1579 178.37 104.123 179.43ZM249.183 122.468C251.383 121.527 253.583 120.571 255.792 119.623C287.212 106.043 319.712 92.0021 354.833 90.1772C373.417 89.3962 392.009 91.779 409.997 94.09C417.382 95.0383 425.017 96.0185 432.54 96.7676C487.617 103.087 528.847 94.6159 574.873 67.5293C578.454 65.4813 582.051 63.3137 585.537 61.2179C594.345 55.9185 603.395 50.4916 613.127 46.3557C612.825 46.2043 612.523 46.0369 612.221 45.8855C602.653 50.0134 593.75 55.3527 585.08 60.5724C581.603 62.6682 578.005 64.8278 574.433 66.8758C528.579 93.8589 487.504 102.298 432.635 96.0025C425.12 95.2614 417.494 94.2812 410.117 93.3329C392.086 91.0139 373.451 88.6232 354.79 89.4122C319.504 91.245 286.928 105.318 255.438 118.921C253.229 119.878 251.029 120.826 248.829 121.774C187.342 148.861 141.54 162.329 81.4679 154.551C81.2867 154.782 81.0969 155.021 80.9157 155.252C141.393 163.181 187.403 149.682 249.183 122.468ZM110.387 134.262C137.261 133.959 164.877 130.054 192.458 122.659C212.828 117.391 232.886 110.116 252.28 103.087C280.086 93.0062 308.841 82.5748 338.933 77.9368C360.873 74.6536 383.278 75.9127 404.941 77.124C413.404 77.6021 422.152 78.0882 430.745 78.3034C476.945 80.208 516.087 72.7331 553.9 54.7789C561.372 51.416 568.67 47.5191 575.728 43.7578C580.654 41.12 585.709 38.4425 590.851 35.9163C590.532 35.7808 590.221 35.6453 589.902 35.5099C584.942 37.9643 580.067 40.5463 575.305 43.0884C568.265 46.8497 560.983 50.7386 553.521 54.0856C515.837 71.984 476.841 79.427 430.771 77.5304C422.187 77.3232 413.447 76.8291 404.993 76.359C383.278 75.1397 360.829 73.8806 338.795 77.1718C308.617 81.8337 279.819 92.273 251.97 102.37C232.593 109.398 212.56 116.658 192.226 121.918C164.713 129.297 137.175 133.186 110.378 133.489C106.832 133.568 103.269 133.537 99.7233 133.441C99.4817 133.696 99.2574 133.951 99.0245 134.198C102.812 134.317 106.608 134.349 110.387 134.262ZM182.218 103.549C209.126 99.1264 235.362 92.273 257.474 86.1529C261.313 85.1009 265.152 84.0331 268.983 82.9732C289.594 77.2515 310.903 71.3385 332.385 67.5293C352.616 63.8715 373.512 62.987 393.717 62.1263C396.417 62.0148 399.117 61.8952 401.809 61.7757C423.619 60.8353 447.016 59.377 470.371 55.1136C494.941 50.7227 520.237 43.0087 545.549 32.1868C551.209 29.828 556.834 27.2619 562.355 24.7198C562.001 24.5923 561.648 24.4728 561.294 24.3453C556.005 26.7838 550.613 29.2303 545.204 31.4855C519.952 42.2835 494.717 49.9816 470.207 54.3645C446.904 58.612 423.55 60.0703 401.775 61.0107C399.074 61.1302 396.383 61.2418 393.682 61.3613C373.443 62.214 352.513 63.1065 332.23 66.7722C310.705 70.5894 289.378 76.5104 268.75 82.2321C264.911 83.2999 261.072 84.3598 257.232 85.4197C235.146 91.5319 208.945 98.3773 182.071 102.792C163.781 105.868 144.792 107.868 124.648 108.865C124.346 109.135 124.044 109.406 123.75 109.677C144.275 108.697 163.609 106.681 182.218 103.549ZM294.304 65.2024C303.354 63.2898 312.706 61.3135 321.929 59.4567C337.881 56.2293 354.29 53.8545 370.164 51.5515L376.436 50.643C420.125 44.459 454.617 36.9762 484.994 27.1026C497.236 23.2057 510.134 18.5917 524.015 13.1568C523.584 13.0532 523.144 12.9417 522.704 12.8301C509.211 18.0896 496.658 22.5762 484.718 26.3774C454.393 36.235 419.944 43.702 376.307 49.878L370.035 50.7944C354.152 53.0974 337.734 55.4722 321.748 58.7076C312.525 60.5564 303.173 62.5407 294.114 64.4533C268.586 69.8563 242.186 75.4425 215.804 78.8293C195.064 81.6344 174.514 83.1087 155.111 83.9136C154.74 84.1845 154.377 84.4555 154.015 84.7264C173.772 83.9375 194.745 82.4552 215.925 79.5944C242.342 76.1996 268.759 70.6133 294.304 65.2024ZM300.102 53.9023L307.702 52.4918C334.473 47.5112 362.158 42.3712 388.73 34.9122C420.125 26.2738 450.718 14.8781 477.764 4.06419C477.238 3.99247 476.703 3.93669 476.177 3.85699C449.467 14.5115 419.366 25.6761 388.497 34.179C361.96 41.6221 334.292 46.7621 307.538 51.7347L299.938 53.1453C263.453 60.0145 225.104 63.4093 185.626 63.2978C185.211 63.5528 184.789 63.7998 184.375 64.0548C224.345 64.2461 263.177 60.8513 300.102 53.9023ZM315.156 40.8889C330.547 38.0838 350.71 33.9718 370.061 27.0707C391.836 19.4842 412.904 9.86562 433.394 0.0557829C432.833 0.031876 432.272 0.015938 431.712 0C411.644 9.57874 391.042 18.9423 369.767 26.3535C350.468 33.2307 330.358 37.3348 314.984 40.1398C282.597 46.276 248.743 48.6507 214.217 47.2721C213.751 47.5032 213.293 47.7423 212.828 47.9813C247.898 49.4875 282.278 47.1127 315.156 40.8889ZM270.165 34.2826C300.386 32.7207 327.735 27.9473 351.477 20.0898C366.903 14.7108 381.207 7.84946 395.813 0.0557829C395.218 0.07969 394.614 0.0876589 394.027 0.111566C379.93 7.58649 366.075 14.1768 351.193 19.3647C327.537 27.1982 300.257 31.9557 270.122 33.5176C261.572 33.9081 252.729 33.9639 243.463 33.677C242.911 33.9081 242.359 34.1551 241.807 34.3942C251.685 34.7369 261.089 34.697 270.165 34.2826ZM353.884 3.73746C352.866 3.87293 351.848 4.00044 350.839 4.14388C348.052 5.26751 345.24 6.34332 342.384 7.33945C326.234 12.6388 308.185 16.1213 287.394 18.0259C286.151 18.3924 284.909 18.759 283.675 19.1415C306.167 17.3326 325.457 13.7067 342.669 8.05666C346.465 6.7338 350.201 5.27548 353.884 3.73746Z" fill="#B7C784" fill-opacity="0.68"/>
</svg>
