<svg xmlns="http://www.w3.org/2000/svg" xmlns:xlink="http://www.w3.org/1999/xlink" width="100%" zoomAndPan="magnify" viewBox="343.53125 92.316406 753.46875 608.824219" height="100%" preserveAspectRatio="xMidYMid meet" version="1.0"><defs><clipPath id="9a5d2cc4bd"><path d="M 343.53125 92.316406 L 1097 92.316406 L 1097 701.140625 L 343.53125 701.140625 Z M 343.53125 92.316406 " clip-rule="nonzero"/></clipPath><clipPath id="803542f7ba"><path d="M 531.777344 479.558594 L 579.234375 423.703125 L 438.476562 423.703125 L 579.234375 258.039062 L 720.011719 92.351562 L 860.765625 258.039062 L 1001.519531 423.703125 L 860.765625 423.703125 L 908.222656 479.558594 L 1096.433594 701.105469 L 343.566406 701.105469 Z M 531.777344 479.558594 " clip-rule="nonzero"/></clipPath><clipPath id="0a24aad871"><path d="M 768 202 L 824 202 L 824 247 L 768 247 Z M 768 202 " clip-rule="nonzero"/></clipPath><clipPath id="85247c1bc9"><path d="M 801.320312 246.890625 L 768.671875 214.285156 L 780.636719 202.296875 L 801.503906 223.164062 L 812.199219 212.855469 L 823.960938 225.046875 Z M 801.320312 246.890625 " clip-rule="nonzero"/></clipPath><clipPath id="2fb7741917"><path d="M 526 243 L 627 243 L 627 415 L 526 415 Z M 526 243 " clip-rule="nonzero"/></clipPath><clipPath id="f9ae84427d"><path d="M 543.335938 364.394531 L 577.28125 368.414062 L 598.714844 313.667969 L 609.910156 414.417969 L 626.960938 414.417969 L 607.980469 243.574219 L 566.289062 350.066406 L 526.417969 345.34375 L 526.417969 414.4375 L 543.359375 414.4375 Z M 543.335938 364.394531 " clip-rule="nonzero"/></clipPath><clipPath id="b5f922526f"><path d="M 622 140 L 716.972656 140 L 716.972656 415 L 622 415 Z M 622 140 " clip-rule="nonzero"/></clipPath><clipPath id="c4b8227eec"><path d="M 714.789062 397.453125 L 654.753906 397.453125 L 648.625 330.539062 L 699.417969 312.375 L 693.71875 296.433594 L 647.035156 313.125 L 640.246094 238.808594 L 716.058594 151.683594 L 703.277344 140.558594 L 622.714844 233.132812 L 639.289062 414.417969 L 714.789062 414.417969 Z M 714.789062 397.453125 " clip-rule="nonzero"/></clipPath><clipPath id="c97bb2ae5a"><path d="M 720 191 L 819 191 L 819 415 L 720 415 Z M 720 191 " clip-rule="nonzero"/></clipPath><clipPath id="aab141ac74"><path d="M 726.640625 414.417969 L 811.652344 414.417969 L 811.652344 397.476562 L 754.863281 397.476562 L 818.941406 277.339844 L 732.203125 191.171875 L 720.261719 203.179688 L 798.050781 280.472656 Z M 726.640625 414.417969 " clip-rule="nonzero"/></clipPath><clipPath id="08d06895ec"><path d="M 819 263 L 960 263 L 960 415 L 819 415 Z M 819 263 " clip-rule="nonzero"/></clipPath><clipPath id="9a1af0da5d"><path d="M 853.863281 305.335938 L 882.699219 342.777344 L 848.003906 342.777344 C 849.980469 330.152344 851.980469 317.414062 853.863281 305.335938 M 845.347656 359.71875 L 895.757812 359.71875 L 937.875 414.417969 L 959.265625 414.417969 L 843.238281 263.785156 L 840.195312 283.242188 C 829.136719 353.769531 823.050781 392.777344 819.714844 414.417969 L 836.835938 414.417969 C 839.128906 399.566406 842.148438 380.222656 845.324219 359.71875 " clip-rule="nonzero"/></clipPath><clipPath id="9cec125296"><path d="M 430 569 L 531 569 L 531 692 L 430 692 Z M 430 569 " clip-rule="nonzero"/></clipPath><clipPath id="e7c6fc7883"><path d="M 444.539062 621.859375 C 463.363281 602.46875 493.996094 578.988281 507.1875 584.191406 C 513.089844 586.527344 516.382812 596.40625 516.449219 612.050781 C 516.496094 622.585938 514.703125 632.007812 511.113281 640.046875 C 497.492188 670.5625 460.003906 675.992188 444.539062 676.898438 Z M 439.476562 691.292969 C 451.464844 691.292969 504.871094 688.820312 524.082031 645.835938 C 528.484375 635.9375 530.710938 624.5625 530.664062 611.980469 C 530.574219 589.503906 524.421875 575.71875 512.410156 570.976562 C 485.003906 560.167969 440.863281 605.035156 432.28125 614.140625 L 430.347656 616.183594 L 430.347656 690.976562 L 437.160156 691.25 C 437.410156 691.273438 438.207031 691.292969 439.476562 691.292969 " clip-rule="nonzero"/></clipPath><clipPath id="5c8a9c476c"><path d="M 539 446 L 626 446 L 626 692 L 539 692 Z M 539 446 " clip-rule="nonzero"/></clipPath><clipPath id="fba4f49626"><path d="M 555.550781 491.707031 C 567.722656 477.265625 587.382812 460.125 595.96875 462.53125 C 599.394531 463.484375 602.097656 469.433594 603.347656 478.832031 C 609.386719 524.132812 569.175781 546.042969 559.046875 550.789062 Z M 560.886719 581.554688 L 608.546875 691.292969 L 625.871094 691.292969 L 570.105469 562.914062 C 586.816406 553.761719 625.757812 526.742188 619.105469 476.746094 C 616.878906 460.03125 610.523438 450.085938 600.238281 447.226562 C 577.28125 440.847656 547.082031 476.8125 541.246094 484.101562 L 539.339844 486.484375 L 551.488281 691.292969 L 567.402344 691.292969 Z M 560.886719 581.554688 " clip-rule="nonzero"/></clipPath><clipPath id="ed15e40449"><path d="M 640.019531 437 L 737 437 L 737 692 L 640.019531 692 Z M 640.019531 437 " clip-rule="nonzero"/></clipPath><clipPath id="b7d0d60db1"><path d="M 676.6875 523.359375 L 688.3125 568.679688 L 670.808594 571.65625 Z M 668.832031 588.117188 L 692.265625 584.121094 L 719.785156 691.316406 L 736.199219 691.316406 L 671.101562 437.691406 L 640.289062 691.316406 L 656.296875 691.316406 Z M 668.832031 588.117188 " clip-rule="nonzero"/></clipPath><clipPath id="4d5b2dd031"><path d="M 712 438.597656 L 813 438.597656 L 813 687.558594 L 712 687.558594 Z M 712 438.597656 " clip-rule="nonzero"/></clipPath><clipPath id="f885d57baf"><path d="M 767.898438 687.070312 C 768.648438 687.183594 769.398438 687.230469 770.125 687.230469 C 784.019531 687.230469 792.695312 668.113281 798.753906 651.128906 C 816.898438 600.289062 811.878906 445.660156 811.652344 439.097656 L 795.78125 439.664062 C 795.828125 441.230469 800.9375 597.722656 783.816406 645.632812 C 776.140625 667.113281 770.941406 670.5625 769.964844 671.039062 C 768.148438 670.132812 754.183594 659.734375 739.925781 554.242188 C 732.136719 496.589844 728.164062 439.394531 728.117188 438.824219 L 712.269531 439.960938 C 712.3125 440.550781 716.421875 499.679688 724.484375 558.621094 C 739.515625 668.542969 754.84375 685.253906 767.851562 687.09375 " clip-rule="nonzero"/></clipPath><clipPath id="2837d8d5e4"><path d="M 819 465 L 908 465 L 908 692 L 819 692 Z M 819 465 " clip-rule="nonzero"/></clipPath><clipPath id="8169e2ab52"><path d="M 907.949219 583.734375 L 906.746094 591.570312 C 900.570312 631.488281 888.375 680.941406 865.332031 689.886719 C 862.902344 690.816406 860.402344 691.292969 857.949219 691.292969 C 853.203125 691.292969 848.527344 689.570312 844.304688 686.164062 C 822.144531 668.339844 813.671875 606.394531 824.164062 538.890625 C 831.589844 491.277344 843.28125 467.890625 861.015625 465.347656 C 884.199219 462.007812 902.613281 498.222656 906.066406 505.535156 L 898.800781 508.964844 L 891.554688 512.394531 C 884.992188 498.566406 871.527344 480.015625 863.308594 481.242188 C 860.925781 481.582031 848.640625 486.097656 840.035156 541.367188 C 828.660156 614.570312 841.851562 663.59375 854.363281 673.652344 C 857.109375 675.855469 858.675781 675.242188 859.539062 674.902344 C 867.988281 671.632812 880.703125 649.175781 889.601562 596.949219 L 860.8125 592.113281 L 863.46875 576.265625 Z M 907.949219 583.734375 " clip-rule="nonzero"/></clipPath><clipPath id="fa3c07aa2f"><path d="M 903 572 L 1002 572 L 1002 694 L 903 694 Z M 903 572 " clip-rule="nonzero"/></clipPath><clipPath id="24a7b5f7c7"><path d="M 961.945312 677.738281 C 943.824219 678.511719 923.957031 664.660156 913.738281 656.328125 L 903.792969 668.542969 C 917.941406 680.054688 939.078125 693.542969 960.46875 693.519531 C 961.195312 693.519531 961.921875 693.496094 962.648438 693.472656 C 971.957031 693.066406 980.40625 689.226562 985.785156 682.960938 C 992.167969 675.535156 992.597656 668.542969 991.824219 663.957031 C 990.007812 653.058594 979.8125 645.019531 971.59375 640.207031 C 968.757812 638.546875 965.738281 636.9375 962.851562 635.390625 C 949.863281 628.488281 937.605469 621.972656 936.332031 608.644531 C 935.789062 602.878906 937.988281 597.222656 942.394531 593.179688 C 947.003906 588.957031 953.339844 587.074219 959.378906 588.164062 C 971.867188 590.433594 980.65625 604.058594 987.898438 616.636719 L 1001.566406 608.78125 C 992.550781 593.113281 981.335938 576.105469 962.195312 572.65625 C 951.316406 570.703125 939.941406 574.039062 931.746094 581.578125 C 923.683594 589.003906 919.644531 599.425781 920.664062 610.144531 C 922.753906 631.894531 940.894531 641.546875 955.472656 649.289062 C 958.355469 650.832031 961.105469 652.285156 963.671875 653.785156 C 970.957031 658.054688 975.683594 662.820312 976.316406 666.542969 C 976.429688 667.226562 976.773438 669.292969 973.867188 672.675781 C 971.34375 675.605469 966.894531 677.488281 962.011719 677.714844 " clip-rule="nonzero"/></clipPath></defs><g clip-path="url(#9a5d2cc4bd)"><g clip-path="url(#803542f7ba)"><path fill="#b1c96b" d="M 332.214844 81 L 1108.519531 81 L 1108.519531 712.457031 L 332.214844 712.457031 Z M 332.214844 81 " fill-opacity="1" fill-rule="nonzero"/></g></g><g clip-path="url(#0a24aad871)"><g clip-path="url(#85247c1bc9)"><path fill="#51603f" d="M 332.214844 81 L 1108.519531 81 L 1108.519531 712.457031 L 332.214844 712.457031 Z M 332.214844 81 " fill-opacity="1" fill-rule="nonzero"/></g></g><g clip-path="url(#2fb7741917)"><g clip-path="url(#f9ae84427d)"><path fill="#51603f" d="M 332.214844 81 L 1108.519531 81 L 1108.519531 712.457031 L 332.214844 712.457031 Z M 332.214844 81 " fill-opacity="1" fill-rule="nonzero"/></g></g><g clip-path="url(#b5f922526f)"><g clip-path="url(#c4b8227eec)"><path fill="#51603f" d="M 332.214844 81 L 1108.519531 81 L 1108.519531 712.457031 L 332.214844 712.457031 Z M 332.214844 81 " fill-opacity="1" fill-rule="nonzero"/></g></g><g clip-path="url(#c97bb2ae5a)"><g clip-path="url(#aab141ac74)"><path fill="#51603f" d="M 332.214844 81 L 1108.519531 81 L 1108.519531 712.457031 L 332.214844 712.457031 Z M 332.214844 81 " fill-opacity="1" fill-rule="nonzero"/></g></g><g clip-path="url(#08d06895ec)"><g clip-path="url(#9a1af0da5d)"><path fill="#51603f" d="M 332.214844 81 L 1108.519531 81 L 1108.519531 712.457031 L 332.214844 712.457031 Z M 332.214844 81 " fill-opacity="1" fill-rule="nonzero"/></g></g><g clip-path="url(#9cec125296)"><g clip-path="url(#e7c6fc7883)"><path fill="#51603f" d="M 332.214844 81 L 1108.519531 81 L 1108.519531 712.457031 L 332.214844 712.457031 Z M 332.214844 81 " fill-opacity="1" fill-rule="nonzero"/></g></g><g clip-path="url(#5c8a9c476c)"><g clip-path="url(#fba4f49626)"><path fill="#51603f" d="M 332.214844 81 L 1108.519531 81 L 1108.519531 712.457031 L 332.214844 712.457031 Z M 332.214844 81 " fill-opacity="1" fill-rule="nonzero"/></g></g><g clip-path="url(#ed15e40449)"><g clip-path="url(#b7d0d60db1)"><path fill="#51603f" d="M 332.214844 81 L 1108.519531 81 L 1108.519531 712.457031 L 332.214844 712.457031 Z M 332.214844 81 " fill-opacity="1" fill-rule="nonzero"/></g></g><g clip-path="url(#4d5b2dd031)"><g clip-path="url(#f885d57baf)"><path fill="#51603f" d="M 332.214844 81 L 1108.519531 81 L 1108.519531 712.457031 L 332.214844 712.457031 Z M 332.214844 81 " fill-opacity="1" fill-rule="nonzero"/></g></g><g clip-path="url(#2837d8d5e4)"><g clip-path="url(#8169e2ab52)"><path fill="#51603f" d="M 332.214844 81 L 1108.519531 81 L 1108.519531 712.457031 L 332.214844 712.457031 Z M 332.214844 81 " fill-opacity="1" fill-rule="nonzero"/></g></g><g clip-path="url(#fa3c07aa2f)"><g clip-path="url(#24a7b5f7c7)"><path fill="#51603f" d="M 332.214844 81 L 1108.519531 81 L 1108.519531 712.457031 L 332.214844 712.457031 Z M 332.214844 81 " fill-opacity="1" fill-rule="nonzero"/></g></g></svg>