<svg xmlns="http://www.w3.org/2000/svg" xmlns:xlink="http://www.w3.org/1999/xlink" width="100%" zoomAndPan="magnify" viewBox="1228.82 30.76 162.58 730.19" height="100%" preserveAspectRatio="xMidYMid meet" version="1.0"><defs>



<clipPath id="833bb0617f"><path d="M 1365.910156 32.332031 L 1254.292969 32.332031 C 1242.199219 32.332031 1232.378906 42.152344 1232.378906 54.246094 L 1232.378906 327.832031 C 1232.378906 339.925781 1242.199219 349.746094 1254.292969 349.746094 L 1365.910156 349.746094 C 1378.007812 349.746094 1387.828125 339.925781 1387.828125 327.832031 L 1387.828125 54.246094 C 1387.828125 42.152344 1378.007812 32.332031 1365.910156 32.332031 Z M 1328.757812 42.386719 C 1329.859375 42.386719 1330.722656 43.25 1330.722656 44.351562 C 1330.722656 45.449219 1329.859375 46.3125 1328.757812 46.3125 C 1327.660156 46.3125 1326.792969 45.449219 1326.792969 44.351562 C 1326.792969 43.25 1327.738281 42.386719 1328.757812 42.386719 Z M 1299.773438 43.015625 L 1318.625 43.015625 C 1319.332031 43.015625 1319.960938 43.5625 1319.960938 44.351562 C 1319.960938 45.136719 1319.332031 45.683594 1318.625 45.683594 L 1299.773438 45.683594 C 1299.066406 45.683594 1298.4375 45.136719 1298.4375 44.351562 C 1298.4375 43.5625 1299.066406 43.015625 1299.773438 43.015625 Z M 1379.8125 329.085938 C 1379.8125 336.234375 1374 342.046875 1366.855469 342.046875 L 1253.507812 342.046875 C 1246.359375 342.046875 1240.546875 336.234375 1240.546875 329.085938 L 1240.546875 53.382812 C 1240.546875 46.234375 1246.359375 40.421875 1253.507812 40.421875 L 1270.398438 40.421875 L 1270.398438 43.957031 C 1270.398438 47.964844 1273.695312 51.261719 1277.703125 51.261719 L 1342.660156 51.261719 C 1346.667969 51.261719 1349.964844 47.964844 1349.964844 43.957031 L 1349.964844 40.421875 L 1366.773438 40.421875 C 1373.921875 40.421875 1379.734375 46.234375 1379.734375 53.382812 L 1379.734375 329.085938 Z M 1379.8125 329.085938 " clip-rule="nonzero"/></clipPath>
<clipPath id="5e253eda85"><path d="M 1318.625 43.015625 L 1299.773438 43.015625 C 1299.066406 43.015625 1298.4375 43.5625 1298.4375 44.351562 C 1298.4375 45.136719 1299.066406 45.683594 1299.773438 45.683594 L 1318.625 45.683594 C 1319.332031 45.683594 1319.960938 45.136719 1319.960938 44.351562 C 1319.960938 43.5625 1319.332031 43.015625 1318.625 43.015625 Z M 1318.625 43.015625 " clip-rule="nonzero"/></clipPath>
<clipPath id="5b3f31e736"><path d="M 1328.757812 42.386719 C 1327.671875 42.386719 1326.792969 43.265625 1326.792969 44.351562 C 1326.792969 45.433594 1327.671875 46.3125 1328.757812 46.3125 C 1329.84375 46.3125 1330.722656 45.433594 1330.722656 44.351562 C 1330.722656 43.265625 1329.84375 42.386719 1328.757812 42.386719 Z M 1328.757812 42.386719 " clip-rule="nonzero"/></clipPath><clipPath id="74a839725a"><path d="M 1229.082031 74.828125 L 1229.082031 84.644531 C 1229.082031 85.585938 1229.867188 86.375 1230.808594 86.375 L 1230.808594 73.175781 C 1229.867188 73.175781 1229.082031 73.882812 1229.082031 74.828125 Z M 1229.082031 74.828125 " clip-rule="nonzero"/></clipPath><clipPath id="8ddc9336f3"><path d="M 1229.082031 97.839844 L 1229.082031 118.265625 C 1229.082031 119.207031 1229.867188 119.992188 1230.808594 119.992188 L 1230.808594 96.191406 C 1229.867188 96.191406 1229.082031 96.898438 1229.082031 97.839844 Z M 1229.082031 97.839844 " clip-rule="nonzero"/></clipPath><clipPath id="ab5e3617b9"><path d="M 1229.082031 126.902344 L 1229.082031 147.328125 C 1229.082031 148.269531 1229.867188 149.054688 1230.808594 149.054688 L 1230.808594 125.175781 C 1229.867188 125.175781 1229.082031 125.960938 1229.082031 126.902344 Z M 1229.082031 126.902344 " clip-rule="nonzero"/></clipPath><clipPath id="479df7f02a"><path d="M 1389.398438 104.046875 L 1389.398438 142.300781 C 1390.339844 142.300781 1391.125 141.515625 1391.125 140.570312 L 1391.125 105.773438 C 1391.125 104.832031 1390.339844 104.046875 1389.398438 104.046875 Z M 1389.398438 104.046875 " clip-rule="nonzero"/></clipPath><clipPath id="3f285c3fa7"><path d="M 1389.398438 104.046875 L 1389.398438 54.246094 C 1389.398438 52.597656 1389.238281 51.027344 1388.925781 49.535156 C 1388.769531 48.75 1388.613281 48.042969 1388.375 47.257812 C 1388.0625 46.15625 1387.589844 45.058594 1387.121094 44.035156 C 1386.804688 43.328125 1386.414062 42.699219 1386.019531 42.070312 C 1385.625 41.445312 1385.234375 40.816406 1384.761719 40.1875 C 1384.054688 39.246094 1383.347656 38.457031 1382.5625 37.59375 C 1382.015625 37.042969 1381.464844 36.574219 1380.914062 36.101562 C 1376.828125 32.726562 1371.644531 30.761719 1365.988281 30.761719 L 1254.292969 30.761719 C 1248.640625 30.761719 1243.375 32.804688 1239.371094 36.101562 C 1238.820312 36.574219 1238.269531 37.125 1237.71875 37.59375 C 1236.933594 38.378906 1236.148438 39.246094 1235.519531 40.1875 C 1235.050781 40.816406 1234.65625 41.445312 1234.265625 42.070312 C 1233.871094 42.699219 1233.480469 43.40625 1233.164062 44.035156 C 1232.613281 45.136719 1232.222656 46.15625 1231.828125 47.257812 C 1231.59375 48.042969 1231.4375 48.75 1231.28125 49.535156 C 1230.964844 51.027344 1230.808594 52.675781 1230.808594 54.246094 L 1230.808594 327.832031 C 1230.808594 340.789062 1241.332031 351.316406 1254.292969 351.316406 L 1365.910156 351.316406 C 1378.871094 351.316406 1389.398438 340.789062 1389.398438 327.832031 Z M 1387.828125 104.046875 L 1387.828125 327.910156 C 1387.828125 340.003906 1378.007812 349.824219 1365.910156 349.824219 L 1254.292969 349.824219 C 1242.199219 349.824219 1232.378906 340.003906 1232.378906 327.910156 L 1232.378906 54.324219 C 1232.378906 42.152344 1242.199219 32.332031 1254.292969 32.332031 L 1365.910156 32.332031 C 1378.007812 32.332031 1387.828125 42.152344 1387.828125 54.246094 Z M 1387.828125 104.046875 " clip-rule="nonzero"/></clipPath><clipPath id="4dd0e2ba5c"><path d="M 1368.46875 428.980469 L 1251.734375 428.980469 C 1239.085938 428.980469 1228.816406 439.25 1228.816406 451.902344 L 1228.816406 738.03125 C 1228.816406 750.679688 1239.085938 760.949219 1251.734375 760.949219 L 1368.46875 760.949219 C 1381.121094 760.949219 1391.390625 750.679688 1391.390625 738.03125 L 1391.390625 451.902344 C 1391.390625 439.25 1381.121094 428.980469 1368.46875 428.980469 Z M 1329.613281 439.496094 C 1330.761719 439.496094 1331.667969 440.402344 1331.667969 441.550781 C 1331.667969 442.699219 1330.761719 443.605469 1329.613281 443.605469 C 1328.464844 443.605469 1327.558594 442.699219 1327.558594 441.550781 C 1327.558594 440.402344 1328.546875 439.496094 1329.613281 439.496094 Z M 1299.300781 440.152344 L 1319.015625 440.152344 C 1319.753906 440.152344 1320.414062 440.730469 1320.414062 441.550781 C 1320.414062 442.371094 1319.753906 442.945312 1319.015625 442.945312 L 1299.300781 442.945312 C 1298.5625 442.945312 1297.902344 442.371094 1297.902344 441.550781 C 1297.902344 440.730469 1298.5625 440.152344 1299.300781 440.152344 Z M 1383.011719 739.34375 C 1383.011719 746.820312 1376.933594 752.898438 1369.457031 752.898438 L 1250.914062 752.898438 C 1243.4375 752.898438 1237.359375 746.820312 1237.359375 739.34375 L 1237.359375 450.996094 C 1237.359375 443.523438 1243.4375 437.441406 1250.914062 437.441406 L 1268.574219 437.441406 L 1268.574219 441.140625 C 1268.574219 445.328125 1272.027344 448.78125 1276.214844 448.78125 L 1344.152344 448.78125 C 1348.34375 448.78125 1351.792969 445.328125 1351.792969 441.140625 L 1351.792969 437.441406 L 1369.375 437.441406 C 1376.847656 437.441406 1382.929688 443.523438 1382.929688 450.996094 L 1382.929688 739.34375 Z M 1383.011719 739.34375 " clip-rule="nonzero"/></clipPath></defs>
<g clip-path="url(#36ff7c8238)"><g clip-path="url(#833bb0617f)"><path fill="#000000" d="M 1229.082031 30.761719 L 1391.125 30.761719 L 1391.125 351.6875 L 1229.082031 351.6875 Z M 1229.082031 30.761719 " fill-opacity="1" fill-rule="nonzero"/></g></g>
<g clip-path="url(#6d97461a7a)"><g clip-path="url(#5e253eda85)"><path fill="#555555" d="M 1229.082031 30.761719 L 1391.125 30.761719 L 1391.125 351.6875 L 1229.082031 351.6875 Z M 1229.082031 30.761719 " fill-opacity="1" fill-rule="nonzero"/></g></g><g clip-path="url(#c59ecec736)"><g clip-path="url(#5b3f31e736)"><path fill="#555555" d="M 1229.082031 30.761719 L 1391.125 30.761719 L 1391.125 351.6875 L 1229.082031 351.6875 Z M 1229.082031 30.761719 " fill-opacity="1" fill-rule="nonzero"/></g></g><g clip-path="url(#4116af076c)"><g clip-path="url(#74a839725a)"><path fill="#2e2e2e" d="M 1229.082031 30.761719 L 1391.125 30.761719 L 1391.125 351.6875 L 1229.082031 351.6875 Z M 1229.082031 30.761719 " fill-opacity="1" fill-rule="nonzero"/></g></g><g clip-path="url(#ad3887a0f6)"><g clip-path="url(#8ddc9336f3)"><path fill="#2e2e2e" d="M 1229.082031 30.761719 L 1391.125 30.761719 L 1391.125 351.6875 L 1229.082031 351.6875 Z M 1229.082031 30.761719 " fill-opacity="1" fill-rule="nonzero"/></g></g><g clip-path="url(#f0d3b04653)"><g clip-path="url(#ab5e3617b9)"><path fill="#2e2e2e" d="M 1229.082031 30.761719 L 1391.125 30.761719 L 1391.125 351.6875 L 1229.082031 351.6875 Z M 1229.082031 30.761719 " fill-opacity="1" fill-rule="nonzero"/></g></g><g clip-path="url(#a875097f94)"><g clip-path="url(#479df7f02a)"><path fill="#2e2e2e" d="M 1229.082031 30.761719 L 1391.125 30.761719 L 1391.125 351.6875 L 1229.082031 351.6875 Z M 1229.082031 30.761719 " fill-opacity="1" fill-rule="nonzero"/></g></g><g clip-path="url(#65bee409f0)"><g clip-path="url(#3f285c3fa7)"><path fill="#555555" d="M 1229.082031 30.761719 L 1391.125 30.761719 L 1391.125 351.6875 L 1229.082031 351.6875 Z M 1229.082031 30.761719 " fill-opacity="1" fill-rule="nonzero"/></g></g>



</svg>