<svg xmlns="http://www.w3.org/2000/svg" xmlns:xlink="http://www.w3.org/1999/xlink" width="400" zoomAndPan="magnify" viewBox="0 0 810 1439.999935" height="700" preserveAspectRatio="xMidYMid meet" version="1.0"><defs><clipPath id="41a09c31cc"><path d="M 55.332031 7 L 754.667969 7 L 754.667969 1432.777344 L 55.332031 1432.777344 Z M 55.332031 7 " clip-rule="nonzero"/></clipPath><clipPath id="1aeab4fd4c"><path d="M 655.640625 7.054688 L 154.359375 7.054688 C 100.03125 7.054688 55.9375 51.152344 55.9375 105.476562 L 55.9375 1334.167969 C 55.9375 1388.496094 100.03125 1432.589844 154.359375 1432.589844 L 655.640625 1432.589844 C 709.96875 1432.589844 754.0625 1388.496094 754.0625 1334.167969 L 754.0625 105.476562 C 754.0625 51.152344 709.96875 7.054688 655.640625 7.054688 Z M 488.78125 52.210938 C 493.722656 52.210938 497.601562 56.089844 497.601562 61.027344 C 497.601562 65.96875 493.722656 69.847656 488.78125 69.847656 C 483.84375 69.847656 479.964844 65.96875 479.964844 61.027344 C 479.964844 56.089844 484.195312 52.210938 488.78125 52.210938 Z M 358.609375 55.03125 L 443.273438 55.03125 C 446.449219 55.03125 449.273438 57.5 449.273438 61.027344 C 449.273438 64.554688 446.449219 67.027344 443.273438 67.027344 L 358.609375 67.027344 C 355.4375 67.027344 352.613281 64.554688 352.613281 61.027344 C 352.613281 57.5 355.4375 55.03125 358.609375 55.03125 Z M 718.082031 1339.8125 C 718.082031 1371.914062 691.976562 1398.019531 659.875 1398.019531 L 150.832031 1398.019531 C 118.730469 1398.019531 92.625 1371.914062 92.625 1339.8125 L 92.625 101.597656 C 92.625 69.496094 118.730469 43.390625 150.832031 43.390625 L 226.675781 43.390625 L 226.675781 59.265625 C 226.675781 77.257812 241.492188 92.074219 259.484375 92.074219 L 551.222656 92.074219 C 569.214844 92.074219 584.03125 77.257812 584.03125 59.265625 L 584.03125 43.390625 L 659.523438 43.390625 C 691.625 43.390625 717.730469 69.496094 717.730469 101.597656 L 717.730469 1339.8125 Z M 718.082031 1339.8125 " clip-rule="nonzero"/></clipPath><clipPath id="52d736c26f"><path d="M 92.289062 43 L 718 43 L 718 1398.664062 L 92.289062 1398.664062 Z M 92.289062 43 " clip-rule="nonzero"/></clipPath><clipPath id="2345478a53"><path d="M 659.523438 43.390625 L 584.03125 43.390625 L 584.03125 59.265625 C 584.03125 77.257812 569.214844 92.074219 551.222656 92.074219 L 259.835938 92.074219 C 241.84375 92.074219 227.027344 77.257812 227.027344 59.265625 L 227.027344 43.390625 L 150.832031 43.390625 C 118.730469 43.390625 92.625 69.496094 92.625 101.597656 L 92.625 1339.8125 C 92.625 1371.914062 118.730469 1398.019531 150.832031 1398.019531 L 659.523438 1398.019531 C 691.625 1398.019531 717.730469 1371.914062 717.730469 1339.8125 L 717.730469 101.597656 C 718.082031 69.496094 691.976562 43.390625 659.523438 43.390625 Z M 659.523438 43.390625 " clip-rule="nonzero"/></clipPath><clipPath id="d384da6a44"><path d="M 352 55 L 450 55 L 450 68 L 352 68 Z M 352 55 " clip-rule="nonzero"/></clipPath><clipPath id="fa5b9311bf"><path d="M 443.273438 55.03125 L 358.609375 55.03125 C 355.4375 55.03125 352.613281 57.5 352.613281 61.027344 C 352.613281 64.554688 355.4375 67.027344 358.609375 67.027344 L 443.273438 67.027344 C 446.449219 67.027344 449.273438 64.554688 449.273438 61.027344 C 449.273438 57.5 446.449219 55.03125 443.273438 55.03125 Z M 443.273438 55.03125 " clip-rule="nonzero"/></clipPath><clipPath id="75a1019d9d"><path d="M 479 52 L 498 52 L 498 70 L 479 70 Z M 479 52 " clip-rule="nonzero"/></clipPath><clipPath id="19993d9f5a"><path d="M 488.78125 52.210938 C 483.910156 52.210938 479.964844 56.15625 479.964844 61.027344 C 479.964844 65.898438 483.910156 69.847656 488.78125 69.847656 C 493.652344 69.847656 497.601562 65.898438 497.601562 61.027344 C 497.601562 56.15625 493.652344 52.210938 488.78125 52.210938 Z M 488.78125 52.210938 " clip-rule="nonzero"/></clipPath><clipPath id="9ca017ffc6"><path d="M 41.121094 190.46875 L 49 190.46875 L 49 250 L 41.121094 250 Z M 41.121094 190.46875 " clip-rule="nonzero"/></clipPath><clipPath id="65bc2f4db0"><path d="M 41.121094 197.902344 L 41.121094 242 C 41.121094 246.230469 44.648438 249.761719 48.878906 249.761719 L 48.878906 190.496094 C 44.648438 190.496094 41.121094 193.667969 41.121094 197.902344 Z M 41.121094 197.902344 " clip-rule="nonzero"/></clipPath><clipPath id="fd05a704e6"><path d="M 41.121094 293 L 49 293 L 49 400.835938 L 41.121094 400.835938 Z M 41.121094 293 " clip-rule="nonzero"/></clipPath><clipPath id="ff2b79fbb8"><path d="M 41.121094 301.265625 L 41.121094 392.984375 C 41.121094 397.21875 44.648438 400.746094 48.878906 400.746094 L 48.878906 293.855469 C 44.648438 293.855469 41.121094 297.03125 41.121094 301.265625 Z M 41.121094 301.265625 " clip-rule="nonzero"/></clipPath><clipPath id="296ddd3f8c"><path d="M 41.121094 424 L 49 424 L 49 531.605469 L 41.121094 531.605469 Z M 41.121094 424 " clip-rule="nonzero"/></clipPath><clipPath id="f73bd7802d"><path d="M 41.121094 431.789062 L 41.121094 523.507812 C 41.121094 527.742188 44.648438 531.269531 48.878906 531.269531 L 48.878906 424.027344 C 44.648438 424.027344 41.121094 427.554688 41.121094 431.789062 Z M 41.121094 431.789062 " clip-rule="nonzero"/></clipPath><clipPath id="4eb568127b"><path d="M 761 329 L 768.878906 329 L 768.878906 501 L 761 501 Z M 761 329 " clip-rule="nonzero"/></clipPath><clipPath id="94fe14cd14"><path d="M 761.121094 329.132812 L 761.121094 500.929688 C 765.351562 500.929688 768.878906 497.402344 768.878906 493.171875 L 768.878906 336.894531 C 768.878906 332.660156 765.351562 329.132812 761.121094 329.132812 Z M 761.121094 329.132812 " clip-rule="nonzero"/></clipPath><clipPath id="df122858af"><path d="M 48 0 L 762 0 L 762 1440 L 48 1440 Z M 48 0 " clip-rule="nonzero"/></clipPath><clipPath id="156faf0483"><path d="M 761.121094 329.132812 L 761.121094 105.476562 C 761.121094 98.070312 760.414062 91.015625 759.003906 84.3125 C 758.296875 80.785156 757.589844 77.609375 756.535156 74.082031 C 755.121094 69.140625 753.003906 64.203125 750.890625 59.617188 C 749.476562 56.441406 747.714844 53.621094 745.949219 50.796875 C 744.1875 47.976562 742.421875 45.15625 740.304688 42.332031 C 737.132812 38.097656 733.957031 34.570312 730.429688 30.691406 C 727.960938 28.222656 725.488281 26.105469 723.019531 23.988281 C 704.675781 8.820312 681.394531 0 655.996094 0 L 154.359375 0 C 128.957031 0 105.324219 9.171875 87.332031 23.988281 C 84.863281 26.105469 82.394531 28.574219 79.925781 30.691406 C 76.394531 34.21875 72.867188 38.097656 70.046875 42.332031 C 67.929688 45.15625 66.167969 47.976562 64.402344 50.796875 C 62.636719 53.621094 60.875 56.796875 59.464844 59.617188 C 56.992188 64.554688 55.230469 69.140625 53.464844 74.082031 C 52.40625 77.609375 51.703125 80.785156 50.996094 84.3125 C 49.585938 91.015625 48.878906 98.421875 48.878906 105.476562 L 48.878906 1334.167969 C 48.878906 1392.375 96.152344 1439.648438 154.359375 1439.648438 L 655.640625 1439.648438 C 713.847656 1439.648438 761.121094 1392.375 761.121094 1334.167969 Z M 754.0625 329.132812 L 754.0625 1334.523438 C 754.0625 1388.847656 709.96875 1432.945312 655.640625 1432.945312 L 154.359375 1432.945312 C 100.03125 1432.945312 55.9375 1388.847656 55.9375 1334.523438 L 55.9375 105.832031 C 55.9375 51.152344 100.03125 7.054688 154.359375 7.054688 L 655.640625 7.054688 C 709.96875 7.054688 754.0625 51.152344 754.0625 105.476562 Z M 754.0625 329.132812 " clip-rule="nonzero"/></clipPath></defs><g clip-path="url(#41a09c31cc)"><g clip-path="url(#1aeab4fd4c)"><path fill="#000000" d="M 41.121094 0 L 768.878906 0 L 768.878906 1441.308594 L 41.121094 1441.308594 Z M 41.121094 0 " fill-opacity="1" fill-rule="nonzero"/></g></g><g clip-path="url(#52d736c26f)"><g clip-path="url(#2345478a53)"><g transform="matrix(0.569045, 0, 0, 0.569997, 70.215087, 43.390512)"><image x="0" y="0" width="1179" xlink:href="/images/Untitled-design(1).mp4" height="2379" preserveAspectRatio="xMidYMid meet"/></g></g></g><g clip-path="url(#d384da6a44)"><g clip-path="url(#fa5b9311bf)"><path fill="#555555" d="M 41.121094 0 L 768.878906 0 L 768.878906 1441.308594 L 41.121094 1441.308594 Z M 41.121094 0 " fill-opacity="1" fill-rule="nonzero"/></g></g><g clip-path="url(#75a1019d9d)"><g clip-path="url(#19993d9f5a)"><path fill="#555555" d="M 41.121094 0 L 768.878906 0 L 768.878906 1441.308594 L 41.121094 1441.308594 Z M 41.121094 0 " fill-opacity="1" fill-rule="nonzero"/></g></g><g clip-path="url(#9ca017ffc6)"><g clip-path="url(#65bc2f4db0)"><path fill="#2e2e2e" d="M 41.121094 0 L 768.878906 0 L 768.878906 1441.308594 L 41.121094 1441.308594 Z M 41.121094 0 " fill-opacity="1" fill-rule="nonzero"/></g></g><g clip-path="url(#fd05a704e6)"><g clip-path="url(#ff2b79fbb8)"><path fill="#2e2e2e" d="M 41.121094 0 L 768.878906 0 L 768.878906 1441.308594 L 41.121094 1441.308594 Z M 41.121094 0 " fill-opacity="1" fill-rule="nonzero"/></g></g><g clip-path="url(#296ddd3f8c)"><g clip-path="url(#f73bd7802d)"><path fill="#2e2e2e" d="M 41.121094 0 L 768.878906 0 L 768.878906 1441.308594 L 41.121094 1441.308594 Z M 41.121094 0 " fill-opacity="1" fill-rule="nonzero"/></g></g><g clip-path="url(#4eb568127b)"><g clip-path="url(#94fe14cd14)"><path fill="#2e2e2e" d="M 41.121094 0 L 768.878906 0 L 768.878906 1441.308594 L 41.121094 1441.308594 Z M 41.121094 0 " fill-opacity="1" fill-rule="nonzero"/></g></g><g clip-path="url(#df122858af)"><g clip-path="url(#156faf0483)"><path fill="#555555" d="M 41.121094 0 L 768.878906 0 L 768.878906 1441.308594 L 41.121094 1441.308594 Z M 41.121094 0 " fill-opacity="1" fill-rule="nonzero"/></g></g></svg>